PathFileType	4	(X/Y/Z)	../Python\running\Running15\task.trc
DataRate	CameraRate	NumFrames	NumMarkers	Units	OrigDataRate	OrigDataStartFrame	OrigNumFrames
200.000000	200.000000	6	30	mm	200.000000	134	215
Frame#	Time	C7			RBAK			CLAV			STRN			RASI			LASI			RTH1			RTH2			RTH3			RTB2			RHEE			RD5M			RTOE			LTH3			LTB2			LTB3			LHEE			LTOE			LD5M			RTB3			RTB1			T10			PE01			LPSI			PE03			PE02			LTH2			RPSI			LTH1			LTB1			
		X1	Y1	Z1	X2	Y2	Z2	X3	Y3	Z3	X4	Y4	Z4	X5	Y5	Z5	X6	Y6	Z6	X7	Y7	Z7	X8	Y8	Z8	X9	Y9	Z9	X10	Y10	Z10	X11	Y11	Z11	X12	Y12	Z12	X13	Y13	Z13	X14	Y14	Z14	X15	Y15	Z15	X16	Y16	Z16	X17	Y17	Z17	X18	Y18	Z18	X19	Y19	Z19	X20	Y20	Z20	X21	Y21	Z21	X22	Y22	Z22	X23	Y23	Z23	X24	Y24	Z24	X25	Y25	Z25	X26	Y26	Z26	X27	Y27	Z27	X28	Y28	Z28	X29	Y29	Z29	X30	Y30	Z30	

135	0.67	169.3079376220704	1295.873779296875	173.6848754882813	93.17654418945315	1187.013549804688	252.3524322509767	284.4612426757814	1188.202758789063	187.7994689941407	320.3404846191407	994.598999023438	167.0093841552735	234.9733276367189	820.6728515625005	276.0563964843751	250.3548126220704	787.0746459960942	53.8092956542969	206.9486389160157	534.838073730469	302.7641601562501	240.9831848144532	465.2512512207034	283.083465576172	256.2925415039064	523.5097656250002	298.3001708984376	164.9555969238282	223.7096405029298	245.1802368164064	22.18915748596192	38.44457626342775	137.7677459716797	170.3936920166016	17.44372940063477	207.5489196777345	214.3221282958986	28.7365074157715	152.4911499023438	263.9809570312501	518.1627197265627	1.868298292160035	33.32575988769533	292.5836181640626	32.28103637695314	78.80146026611331	272.648406982422	32.63187789916994	-140.9514465332032	226.4980621337892	97.23000335693365	-26.41235160827638	90.99848175048831	54.04984283447268	-56.90346527099612	122.7745208740235	10.34220790863037	179.9183959960938	181.7443847656251	221.2175598144532	221.0793457031251	247.4208221435548	238.3025360107423	100.5290298461915	1009.894165039063	131.2843322753907	69.60768890380862	912.7524414062505	143.5246124267579	60.34730148315433	873.3447265625005	103.3114242553712	41.9597625732422	855.0622558593755	121.9450454711915	35.88562393188478	862.8054809570317	171.6040496826172	198.8534088134767	475.2613220214846	20.28245925903321	53.193717956543	886.5700683593755	191.6828002929688	215.3397216796876	532.2371215820315	3.141300916671755	103.800277709961	329.1146850585939	20.28135681152344	
136	0.675	185.4462432861329	1294.304321289063	173.9954528808594	110.3435974121094	1185.117309570313	254.0849609375001	300.6776428222657	1185.886840820313	186.4483947753907	335.9200439453126	991.940551757813	165.6287689208985	248.8955841064454	818.149291992188	276.3741455078126	265.159881591797	784.9699707031255	54.00771713256839	215.7252655029298	532.3518676757815	302.5902709960939	248.5225219726564	462.1731872558596	283.0139465332032	264.8103637695314	520.1625976562502	298.2332153320314	168.0521087646485	222.1844940185548	244.7310028076173	22.13210105895997	39.23530578613283	137.3632965087891	170.0864562988282	17.39479064941407	207.3939056396486	214.1421203613282	28.63907051086427	152.4635314941407	287.9138793945314	519.9089355468752	1.608306169509889	63.35420227050784	289.0119628906251	28.30688285827638	109.2970886230469	270.192840576172	29.63594245910646	-110.5956573486329	218.9292297363282	90.18549346923831	8.775198936462406	86.90124511718753	48.75360870361331	-21.96809005737305	117.9110183715821	4.653833866119387	182.3005676269532	179.8697052001954	221.0204162597657	224.6343078613282	244.7432098388673	238.3504180908204	115.8981018066407	1008.373962402344	131.7393035888672	84.58042907714847	911.9509277343755	143.2301177978516	75.19574737548831	872.4987792968755	102.9317321777344	56.6764831542969	854.4707641601567	121.3363800048829	50.30072784423831	862.189086914063	170.9679565429688	223.8370971679689	475.0530090332034	19.35795211791993	67.70566558837893	885.9426269531255	191.1361999511719	238.8794708251954	532.5020751953127	2.325681686401368	133.1360321044922	327.1738586425782	17.48728370666505	
137	0.68	201.5747833251954	1293.07373046875	174.2713775634766	127.691520690918	1183.628051757813	255.8461303710939	316.8800659179689	1184.0390625	184.9953765869141	351.4874572753907	989.7838745117192	164.1926269531251	262.9050292968751	815.8554077148442	276.6778869628907	280.0267944335939	783.3583374023442	54.15435028076175	224.325408935547	530.155456542969	302.3401184082032	255.7628326416017	459.3676452636721	282.8616638183595	273.1223449707032	517.0372314453127	298.058807373047	170.8847045898438	220.8867797851564	244.2679290771486	22.0738925933838	40.20281219482423	136.9459228515626	169.7523498535157	17.34825706481934	207.2301330566407	213.9591217041017	28.53815841674806	152.4379119873047	311.6684875488282	522.3171386718752	1.590692520141602	93.50960540771487	285.8491821289064	24.62389945983888	139.926254272461	268.2717590332032	26.8397617340088	-79.6855392456055	211.2351837158204	83.39922332763675	44.56165313720705	83.08659362792972	43.50318145751955	13.4861068725586	113.2923736572266	-0.8658334612846379	184.4513092041016	178.2314758300782	220.8339996337892	227.8979339599611	242.3029174804689	238.404754638672	131.3066711425782	1007.195739746094	132.2864990234376	99.61988830566412	911.4194946289067	143.1000061035157	90.07930755615237	872.0077514648442	102.7018280029297	71.43955993652347	854.1867065429692	120.8488693237305	64.80540466308597	861.821411132813	170.4629211425782	248.7127075195314	475.6083679199221	18.58726692199708	82.28894042968753	885.5184936523442	190.7132263183594	262.3520507812501	533.456481933594	1.592328548431397	162.4281311035157	325.7820739746095	15.01037979125977	
138	0.6850000000000001	217.693084716797	1292.194458007813	174.5128173828126	145.2342529296876	1182.561889648438	257.6478576660157	333.074432373047	1182.674072265625	183.4436950683594	367.0514526367189	988.141479492188	162.7011108398438	277.0247802734376	813.8117675781255	276.966033935547	294.9731445312501	782.260864257813	54.24608993530276	232.7899627685548	528.2722778320315	302.0095825195314	262.7383728027345	456.8618469238284	282.6133422851564	281.2634887695314	514.154235839844	297.7628784179689	173.5050048828126	219.8412322998048	243.789276123047	22.02069091796876	41.37123489379884	136.5303802490235	169.3940887451172	17.31460571289063	207.055877685547	213.7807006835939	28.44224548339845	152.4167633056641	335.1677856445314	525.388610839844	1.835435509681703	123.7542037963868	283.1118774414064	21.24717140197755	170.6428985595704	266.8967285156251	24.25290679931642	-48.23161315917972	203.4646606445314	76.90551757812503	80.91037750244143	79.61269378662112	38.35707473754884	49.43482971191409	108.972885131836	-6.172460556030277	186.4160156250001	176.8607330322266	220.6318206787111	230.9238128662111	240.1317901611329	238.4230346679689	146.7664489746094	1006.363403320313	132.9388122558594	114.7330856323243	911.155883789063	143.1377563476563	105.0139770507813	871.8627929687505	102.6201095581055	86.26605224609378	854.2048339843755	120.4849014282227	79.42082977294925	861.689575195313	170.0925750732422	273.4187011718751	476.9038391113284	17.995267868042	96.96357727050787	885.2938842773442	190.4236602783204	285.6723937988282	535.076599121094	0.9711943268775944	191.6287994384766	324.9395141601564	12.86159706115723	
139	0.6900000000000001	233.8017425537111	1291.676147460938	174.719467163086	162.9826965332032	1181.933471679688	259.5008239746095	349.2664794921876	1181.7998046875	181.7973785400391	382.6211242675782	987.0183105468755	161.1550903320313	291.2779235839845	812.0379028320317	277.2369995117189	310.0164489746095	781.6903686523442	54.28230285644534	241.1579437255861	526.7248535156252	301.5942993164064	269.4869079589845	454.6848754882815	282.2560119628907	289.2663574218751	511.5379638671877	297.3325500488282	175.9652099609376	219.0769653320314	243.2926788330079	21.98283004760743	42.7703323364258	136.1392669677735	169.0196380615235	17.30125045776368	206.8700256347657	213.6163024902345	28.35900878906251	152.4017639160157	358.3409118652345	529.1166992187502	2.338761568069459	154.0541229248047	280.8072509765626	18.18538475036622	201.4037475585939	266.0685424804689	21.88378906250001	-16.24737930297852	195.6722412109376	70.72880554199222	117.7768478393555	76.53088378906253	33.38677978515626	85.85089111328128	104.9974212646485	-11.21710014343262	188.2419433593751	175.7913208007813	220.3938140869142	233.7653656005861	238.2658081054689	238.3700561523439	162.2888641357422	1005.878845214844	133.7101287841797	129.9287109375001	911.158325195313	143.3453369140626	120.0163726806641	872.0545043945317	102.6832275390626	101.1737518310547	854.5206909179692	120.2447662353516	94.16677856445315	861.7821655273442	169.8578338623047	297.8995361328126	478.9014587402346	17.60261344909669	111.7486648559571	885.2673950195317	190.2749023437501	308.7556762695314	537.3259887695315	0.4903640151023867	220.697723388672	324.635467529297	11.04433917999268	
140	0.6950000000000001	249.9023437500001	1291.525024414063	174.8904113769532	180.9437866210938	1181.754272460938	261.4128723144532	365.4617004394532	1181.418090820313	180.0611419677735	398.2056884765627	986.4122924804692	159.5565795898438	305.687225341797	810.5523071289067	277.4894104003907	325.1736450195314	781.651733398438	54.26528167724612	249.467010498047	525.534851074219	301.0903930664064	276.0497436523439	452.8674926757815	281.7783203125001	297.1622924804689	509.2169189453127	296.7569274902345	178.3162384033204	218.6274414062501	242.7759552001954	21.97516059875489	44.4341163635254	135.8024902343751	168.6413726806641	17.31289672851563	206.6726226806642	213.4753875732423	28.29516220092775	152.3939208984376	381.1248168945314	533.4807739257815	3.074877738952638	184.3802642822266	278.9329528808595	15.44122409820557	232.1692810058595	265.777313232422	19.74021339416505	16.25059509277344	187.9173583984376	64.8851013183594	155.1083526611329	73.88321685791018	28.67402839660646	122.7030715942383	101.3993682861329	-15.94669628143311	189.9765014648438	175.0594635009766	220.1075439453126	236.4741058349611	236.7443847656251	238.2205657958986	177.8847198486329	1005.741943359375	134.6145782470704	145.2169189453126	911.4251098632817	143.7229766845704	135.1033477783204	872.5731811523442	102.8862915039063	116.1807861328126	855.1304321289067	120.1267852783204	109.0610122680665	862.090209960938	169.7569274902344	322.1049194335939	481.550720214844	17.42534446716309	126.6617507934571	885.4398803710942	190.2716217041016	331.5216674804689	540.1562500000002	0.1739858984947205	249.6031951904298	324.8486938476564	9.554374694824222	
